<svg xmlns="http://www.w3.org/2000/svg" viewBox="0 0 64 64" role="img" aria-label="TF13 CIM Comparison Reports"><title>TF13 CIM Comparison Reports</title><defs><linearGradient id="t13-g1" x1="31.2" y1="0" x2="31.2" y2="31.2" gradientUnits="userSpaceOnUse"><stop offset="0" stop-color="#0097a5"/><stop offset=".63" stop-color="#66bcc6"/><stop offset="1" stop-color="#a0d1d9"/></linearGradient><linearGradient id="t13-g2" x1="59.58" y1="44.39" x2="30.27" y2="33.72" gradientUnits="userSpaceOnUse"><stop offset=".23" stop-color="#00a851"/><stop offset="1" stop-color="#84ca9b"/></linearGradient><linearGradient id="t13-g3" x1="32.12" y1="33.72" x2="2.8" y2="44.4" gradientUnits="userSpaceOnUse"><stop offset="0" stop-color="#6e87c4"/><stop offset=".44" stop-color="#4876ba"/><stop offset="1" stop-color="#0058a9"/></linearGradient></defs><path d="m31.2,31.2L4.18,15.6C12.79.68,31.87-4.43,46.79,4.18c4.97,2.87,8.55,6.45,11.42,11.42l-27.02,15.6Z" fill="url(#t13-g1)"/><path d="m31.19,31.18l27.02-15.6c8.62,14.92,3.5,34-11.42,42.61-4.97,2.87-9.86,4.18-15.6,4.18v-31.19Z" fill="url(#t13-g2)"/><path d="m31.19,31.18v31.2C13.96,62.37,0,48.41,0,31.18c0-5.74,1.31-10.63,4.18-15.6l27.02,15.6Z" fill="url(#t13-g3)"/><path d="m44.56,23.41s-8.12,5.54-13.11,5.54-13.68-5.58-13.68-5.58c0,0,8.39,4.35,10.89,8.68,2.49,4.32,2.54,14.64,2.54,14.64,0,0-.31-10,2.18-14.33,2.5-4.32,11.18-8.94,11.18-8.94Z" fill="#fff" stroke="#fff" stroke-width="2"/><path d="m28.67,49.43c-.16-1.37.81-2.61,2.17-2.78,1.37-.16,2.61.81,2.78,2.18.17,1.36-.81,2.61-2.18,2.77-1.36.17-2.61-.81-2.77-2.17Z" fill="#fff" stroke="#fff" stroke-width="2.36"/><path d="m13.25,22.39c-.17-1.37.81-2.61,2.17-2.77,1.37-.17,2.61.81,2.78,2.18.17,1.37-.81,2.61-2.17,2.77-1.37.17-2.61-.81-2.78-2.17Z" fill="#fff" stroke="#fff" stroke-width="2.36"/><path d="m44.2,22.31c-.16-1.37.81-2.61,2.17-2.77,1.36-.16,2.61.81,2.77,2.18.17,1.37-.81,2.61-2.18,2.77-1.36.17-2.61-.8-2.77-2.17Z" fill="#fff" stroke="#fff" stroke-width="2.36"/><path d="M40 29h14.5l7.5 7.5V61H40z" fill="#fff" stroke="#231f20" stroke-width="1.5" stroke-linejoin="round"/><path d="M54.5 29v7.5H62" fill="none" stroke="#231f20" stroke-width="1.5" stroke-linejoin="round"/><path d="M43.5 41.5h15" stroke="#00a851" stroke-width="2" stroke-linecap="round"/><path d="M43.5 46h15" stroke="#0097a5" stroke-width="2" stroke-linecap="round"/><path d="M43.5 50.5h15" stroke="#0058a9" stroke-width="2" stroke-linecap="round"/><path d="M43.5 55H53" stroke="#9aa5b1" stroke-width="2" stroke-linecap="round"/></svg>
